<?xml version="1.0" ?><svg height="44" id="svg4152" version="1.1" viewBox="0 0 32 32" width="44" fill="white" xmlns="http://www.w3.org/2000/svg" xmlns:cc="http://creativecommons.org/ns#" xmlns:dc="http://purl.org/dc/elements/1.1/" xmlns:inkscape="http://www.inkscape.org/namespaces/inkscape" xmlns:rdf="http://www.w3.org/1999/02/22-rdf-syntax-ns#" xmlns:sodipodi="http://sodipodi.sourceforge.net/DTD/sodipodi-0.dtd" xmlns:svg="http://www.w3.org/2000/svg"><defs id="defs4154"/><g id="layer1"><g id="g4813" style="fill:none;stroke:#fff" transform="matrix(0.93841485,0,0,0.93841485,0.99399188,1.8404203)"><path d="m 4.5053818,16.686863 c 0,0 -0.727752,-11.6844403 11.1788792,-11.6844403 12.20233,0 11.115732,11.6844403 11.115732,11.6844403" id="path4232" style="fill:none;fill-rule:evenodd;stroke:#fff;stroke-width:1;stroke-linecap:butt;stroke-linejoin:miter;stroke-miterlimit:4;stroke-dasharray:none;stroke-opacity:1"/><path d="m 26.646337,16.567438 a 3.3452923,4.3039615 0 0 0 -1.338538,0.365209 l 0,7.880441 a 3.3452923,4.3039615 0 0 0 1.338538,0.362144 3.3452923,4.3039615 0 0 0 3.345242,-4.304033 3.3452923,4.3039615 0 0 0 -3.345242,-4.303761 z" id="path4234" style="opacity:1;fill:none;fill-opacity:1;stroke:#fff;stroke-width:1;stroke-linecap:round;stroke-linejoin:round;stroke-miterlimit:4;stroke-dasharray:none;stroke-opacity:1"/><path d="m 5.3352715,16.567438 a 3.3452923,4.3039615 0 0 1 1.3385379,0.365209 l 0,7.880441 A 3.3452923,4.3039615 0 0 1 5.3352715,25.175232 3.3452923,4.3039615 0 0 1 1.9900294,20.871199 3.3452923,4.3039615 0 0 1 5.3352715,16.567438 Z" id="path4239" style="opacity:1;fill:none;fill-opacity:1;stroke:#fff;stroke-width:1;stroke-linecap:round;stroke-linejoin:round;stroke-miterlimit:4;stroke-dasharray:none;stroke-opacity:1"/></g></g></svg>